<svg xmlns="http://www.w3.org/2000/svg" width="534.953145345052" height="272.671875" viewBox="0 0 534.953145345052 272.671875">

  <defs>
    <style>
      text { font-family: system-ui, -apple-system, "Segoe UI", sans-serif; font-size: 12px; fill: #111827; }
      .shape-rect { fill: #ffffff; stroke: #9ca3af; stroke-width: 1; }
      .shape-entity { fill: #ffffff; stroke: #111827; stroke-width: 2; }
      .shape-circle { fill: #ffffff; stroke: #9ca3af; stroke-width: 1; }
      .shape-pill { fill: #ffffff; stroke: #9ca3af; stroke-width: 1; }
      .shape-db { fill: #ffffff; stroke: #9ca3af; stroke-width: 1; }
      .conn { stroke: #111827; stroke-width: 2; fill: none; }
    </style>
    <marker id="arrow-end" markerWidth="10" markerHeight="7" refX="10" refY="3.5"
            orient="auto" markerUnits="strokeWidth">
      <polygon points="0 0, 10 3.5, 0 7" fill="#111827"/>
    </marker>
    <marker id="arrow-start" markerWidth="10" markerHeight="7" refX="0" refY="3.5"
            orient="auto" markerUnits="strokeWidth">
      <polygon points="10 0, 0 3.5, 10 7" fill="#111827"/>
    </marker>
  </defs>
        
<rect class="shape-rect" x="193.85937499999997" y="78.578125" width="120.00002034505208" height="40" rx="4" ry="4" />
<text x="253.859385172526" y="102.578125" text-anchor="middle">Dominio</text>
<rect class="shape-rect" x="193.67187499999997" y="40" width="120.00002034505208" height="40" rx="4" ry="4" />
<text x="253.671885172526" y="64" text-anchor="middle">Proveedor</text>
<rect class="shape-rect" x="40" y="147.34374999999997" width="120" height="40" rx="4" ry="4" />
<text x="100" y="171.34374999999997" text-anchor="middle">Al. Compartido</text>
<text x="84.32812499999997" y="206.67187499999997">Barato</text>
<text x="70" y="224.67187500000003">PHP/MySQL</text>
<rect class="shape-rect" x="195.67187499999997" y="145.99999999999997" width="120.00002034505208" height="40" rx="4" ry="4" />
<text x="255.671885172526" y="169.99999999999997" text-anchor="middle">VPS</text>
<text x="241.32812499999997" y="206.99999999999997">Linux</text>
<text x="182.99999999999997" y="226.67187500000003">Te instalas lo que quieres</text>
<rect class="shape-rect" x="349.343770345052" y="144.34374999999997" width="120" height="40" rx="4" ry="4" />
<text x="409.343770345052" y="168.34374999999997" text-anchor="middle">Dedicado</text>
<text x="400.312520345052" y="202.34374999999997">Linux</text>
<text x="350.000020345052" y="222.01562500000003">Te instalas lo que quieres</text>
</svg>